<mxfile host="app.diagrams.net" agent="Mozilla/5.0 (Windows NT 10.0; Win64; x64) AppleWebKit/537.36 (KHTML, like Gecko) Chrome/132.0.0.0 Safari/537.36 Edg/132.0.0.0" version="26.0.6">
  <diagram name="Page-1" id="3iXytOIehwj7ZDkx1unw">
    <mxGraphModel dx="1235" dy="560" grid="1" gridSize="10" guides="1" tooltips="1" connect="1" arrows="1" fold="1" page="1" pageScale="1" pageWidth="850" pageHeight="1100" math="0" shadow="0">
      <root>
        <mxCell id="0" />
        <mxCell id="1" parent="0" />
        <mxCell id="YnngZR6m_7HpqkviCiB8-54" value="&lt;p style=&quot;margin:0px;margin-top:4px;text-align:center;&quot;&gt;&lt;b&gt;Hệ thống&lt;/b&gt;&lt;/p&gt;&lt;hr size=&quot;1&quot; style=&quot;border-style:solid;&quot;&gt;&lt;div style=&quot;height:2px;&quot;&gt;&lt;/div&gt;" style="verticalAlign=top;align=left;overflow=fill;html=1;whiteSpace=wrap;" vertex="1" parent="1">
          <mxGeometry x="260" width="500" height="540" as="geometry" />
        </mxCell>
        <mxCell id="YnngZR6m_7HpqkviCiB8-51" value="&lt;p style=&quot;margin:0px;margin-top:4px;text-align:center;&quot;&gt;&lt;b&gt;Người dùng&lt;/b&gt;&lt;/p&gt;&lt;hr size=&quot;1&quot; style=&quot;border-style:solid;&quot;&gt;&lt;div style=&quot;height:2px;&quot;&gt;&lt;/div&gt;" style="verticalAlign=top;align=left;overflow=fill;html=1;whiteSpace=wrap;" vertex="1" parent="1">
          <mxGeometry width="260" height="540" as="geometry" />
        </mxCell>
        <mxCell id="OR3LcchpH6B-QSaoghlQ-7" style="edgeStyle=orthogonalEdgeStyle;rounded=0;orthogonalLoop=1;jettySize=auto;html=1;entryX=0;entryY=0.5;entryDx=0;entryDy=0;" parent="1" source="OR3LcchpH6B-QSaoghlQ-4" target="OR3LcchpH6B-QSaoghlQ-5" edge="1">
          <mxGeometry relative="1" as="geometry" />
        </mxCell>
        <mxCell id="OR3LcchpH6B-QSaoghlQ-4" value="" style="ellipse;html=1;shape=startState;fillColor=#000000;strokeColor=#ff0000;" parent="1" vertex="1">
          <mxGeometry x="20" y="45" width="30" height="30" as="geometry" />
        </mxCell>
        <mxCell id="YnngZR6m_7HpqkviCiB8-5" value="" style="edgeStyle=orthogonalEdgeStyle;rounded=0;orthogonalLoop=1;jettySize=auto;html=1;" edge="1" parent="1" source="OR3LcchpH6B-QSaoghlQ-5" target="YnngZR6m_7HpqkviCiB8-2">
          <mxGeometry relative="1" as="geometry" />
        </mxCell>
        <mxCell id="OR3LcchpH6B-QSaoghlQ-5" value="Duyệt công" style="rounded=1;whiteSpace=wrap;html=1;arcSize=40;fontColor=#000000;fillColor=#ffffc0;strokeColor=#ff0000;" parent="1" vertex="1">
          <mxGeometry x="100" y="40" width="120" height="40" as="geometry" />
        </mxCell>
        <mxCell id="YnngZR6m_7HpqkviCiB8-30" style="edgeStyle=orthogonalEdgeStyle;rounded=0;orthogonalLoop=1;jettySize=auto;html=1;" edge="1" parent="1" source="OR3LcchpH6B-QSaoghlQ-11" target="OR3LcchpH6B-QSaoghlQ-12">
          <mxGeometry relative="1" as="geometry">
            <Array as="points">
              <mxPoint x="160" y="200" />
            </Array>
          </mxGeometry>
        </mxCell>
        <mxCell id="OR3LcchpH6B-QSaoghlQ-11" value="Quét vân tay đầu ca" style="rounded=1;whiteSpace=wrap;html=1;arcSize=40;fontColor=#000000;fillColor=#ffffc0;strokeColor=#ff0000;" parent="1" vertex="1">
          <mxGeometry x="100" y="120" width="120" height="40" as="geometry" />
        </mxCell>
        <mxCell id="YnngZR6m_7HpqkviCiB8-39" value="" style="edgeStyle=orthogonalEdgeStyle;rounded=0;orthogonalLoop=1;jettySize=auto;html=1;" edge="1" parent="1" source="OR3LcchpH6B-QSaoghlQ-12" target="OR3LcchpH6B-QSaoghlQ-14">
          <mxGeometry relative="1" as="geometry" />
        </mxCell>
        <mxCell id="YnngZR6m_7HpqkviCiB8-41" style="edgeStyle=orthogonalEdgeStyle;rounded=0;orthogonalLoop=1;jettySize=auto;html=1;" edge="1" parent="1" source="OR3LcchpH6B-QSaoghlQ-12" target="OR3LcchpH6B-QSaoghlQ-27">
          <mxGeometry relative="1" as="geometry">
            <Array as="points">
              <mxPoint x="360" y="260" />
              <mxPoint x="520" y="260" />
            </Array>
          </mxGeometry>
        </mxCell>
        <mxCell id="OR3LcchpH6B-QSaoghlQ-12" value="Kiểm tra vân&lt;br&gt;tay&amp;nbsp;&lt;span style=&quot;background-color: transparent; color: light-dark(rgb(0, 0, 0), rgb(237, 237, 237));&quot;&gt;trong khung giờ&lt;/span&gt;&lt;div&gt;&lt;div&gt;cho phép&lt;/div&gt;&lt;/div&gt;" style="rhombus;whiteSpace=wrap;html=1;fontColor=#000000;fillColor=#ffffc0;strokeColor=#ff0000;" parent="1" vertex="1">
          <mxGeometry x="300" y="160" width="120" height="80" as="geometry" />
        </mxCell>
        <mxCell id="YnngZR6m_7HpqkviCiB8-31" style="edgeStyle=orthogonalEdgeStyle;rounded=0;orthogonalLoop=1;jettySize=auto;html=1;entryX=1;entryY=0.5;entryDx=0;entryDy=0;" edge="1" parent="1" source="OR3LcchpH6B-QSaoghlQ-13" target="OR3LcchpH6B-QSaoghlQ-11">
          <mxGeometry relative="1" as="geometry">
            <Array as="points">
              <mxPoint x="440" y="80" />
              <mxPoint x="440" y="140" />
            </Array>
          </mxGeometry>
        </mxCell>
        <mxCell id="YnngZR6m_7HpqkviCiB8-48" value="" style="edgeStyle=orthogonalEdgeStyle;rounded=0;orthogonalLoop=1;jettySize=auto;html=1;" edge="1" parent="1" source="OR3LcchpH6B-QSaoghlQ-13" target="YnngZR6m_7HpqkviCiB8-47">
          <mxGeometry relative="1" as="geometry" />
        </mxCell>
        <mxCell id="OR3LcchpH6B-QSaoghlQ-13" value="Quét vân tay&lt;br&gt;lại trong khung giờ&lt;div&gt;cho phép&lt;/div&gt;" style="rhombus;whiteSpace=wrap;html=1;fontColor=#000000;fillColor=#ffffc0;strokeColor=#FF0000;" parent="1" vertex="1">
          <mxGeometry x="460" y="40" width="120" height="80" as="geometry" />
        </mxCell>
        <mxCell id="YnngZR6m_7HpqkviCiB8-40" value="" style="edgeStyle=orthogonalEdgeStyle;rounded=0;orthogonalLoop=1;jettySize=auto;html=1;" edge="1" parent="1" source="OR3LcchpH6B-QSaoghlQ-14" target="OR3LcchpH6B-QSaoghlQ-13">
          <mxGeometry relative="1" as="geometry" />
        </mxCell>
        <mxCell id="OR3LcchpH6B-QSaoghlQ-14" value="Quét vân tay thất bại" style="rounded=1;whiteSpace=wrap;html=1;arcSize=40;fontColor=#000000;fillColor=#ffffc0;strokeColor=#ff0000;" parent="1" vertex="1">
          <mxGeometry x="460" y="180" width="120" height="40" as="geometry" />
        </mxCell>
        <mxCell id="YnngZR6m_7HpqkviCiB8-35" value="" style="edgeStyle=orthogonalEdgeStyle;rounded=0;orthogonalLoop=1;jettySize=auto;html=1;" edge="1" parent="1" source="OR3LcchpH6B-QSaoghlQ-27" target="YnngZR6m_7HpqkviCiB8-22">
          <mxGeometry relative="1" as="geometry" />
        </mxCell>
        <mxCell id="OR3LcchpH6B-QSaoghlQ-27" value="Lưu thời gian quét vân tay vào CSDL" style="rounded=1;whiteSpace=wrap;html=1;arcSize=40;fontColor=#000000;fillColor=#ffffc0;strokeColor=#ff0000;" parent="1" vertex="1">
          <mxGeometry x="460" y="280" width="120" height="40" as="geometry" />
        </mxCell>
        <mxCell id="YnngZR6m_7HpqkviCiB8-33" style="edgeStyle=orthogonalEdgeStyle;rounded=0;orthogonalLoop=1;jettySize=auto;html=1;entryX=0;entryY=0.5;entryDx=0;entryDy=0;" edge="1" parent="1" source="OR3LcchpH6B-QSaoghlQ-33" target="OR3LcchpH6B-QSaoghlQ-37">
          <mxGeometry relative="1" as="geometry">
            <Array as="points">
              <mxPoint x="160" y="400" />
            </Array>
          </mxGeometry>
        </mxCell>
        <mxCell id="OR3LcchpH6B-QSaoghlQ-33" value="Quét vân tay cuối ca" style="rounded=1;whiteSpace=wrap;html=1;arcSize=40;fontColor=#000000;fillColor=#ffffc0;strokeColor=#ff0000;" parent="1" vertex="1">
          <mxGeometry x="100" y="280" width="120" height="40" as="geometry" />
        </mxCell>
        <mxCell id="OR3LcchpH6B-QSaoghlQ-35" value="" style="edgeStyle=orthogonalEdgeStyle;rounded=0;orthogonalLoop=1;jettySize=auto;html=1;" parent="1" source="OR3LcchpH6B-QSaoghlQ-37" target="OR3LcchpH6B-QSaoghlQ-40" edge="1">
          <mxGeometry relative="1" as="geometry" />
        </mxCell>
        <mxCell id="OR3LcchpH6B-QSaoghlQ-36" value="" style="edgeStyle=orthogonalEdgeStyle;rounded=0;orthogonalLoop=1;jettySize=auto;html=1;" parent="1" source="OR3LcchpH6B-QSaoghlQ-37" target="OR3LcchpH6B-QSaoghlQ-41" edge="1">
          <mxGeometry relative="1" as="geometry" />
        </mxCell>
        <mxCell id="OR3LcchpH6B-QSaoghlQ-37" value="Kiểm tra vân&lt;br&gt;tay&amp;nbsp;&lt;span style=&quot;color: light-dark(rgb(0, 0, 0), rgb(237, 237, 237)); background-color: transparent;&quot;&gt;trong khung giờ&lt;/span&gt;&lt;div&gt;cho phép&lt;/div&gt;" style="rhombus;whiteSpace=wrap;html=1;fontColor=#000000;fillColor=#ffffc0;strokeColor=#ff0000;" parent="1" vertex="1">
          <mxGeometry x="300" y="360" width="120" height="80" as="geometry" />
        </mxCell>
        <mxCell id="YnngZR6m_7HpqkviCiB8-46" value="" style="edgeStyle=orthogonalEdgeStyle;rounded=0;orthogonalLoop=1;jettySize=auto;html=1;" edge="1" parent="1" source="OR3LcchpH6B-QSaoghlQ-38" target="YnngZR6m_7HpqkviCiB8-43">
          <mxGeometry relative="1" as="geometry" />
        </mxCell>
        <mxCell id="OR3LcchpH6B-QSaoghlQ-38" value="Quét vân tay&lt;br&gt;lại trong khung giờ&lt;div&gt;cho phép&lt;/div&gt;" style="rhombus;whiteSpace=wrap;html=1;fontColor=#000000;fillColor=#ffffc0;strokeColor=#FF0000;" parent="1" vertex="1">
          <mxGeometry x="620" y="360" width="120" height="80" as="geometry" />
        </mxCell>
        <mxCell id="OR3LcchpH6B-QSaoghlQ-39" value="" style="edgeStyle=orthogonalEdgeStyle;rounded=0;orthogonalLoop=1;jettySize=auto;html=1;" parent="1" source="OR3LcchpH6B-QSaoghlQ-40" target="OR3LcchpH6B-QSaoghlQ-38" edge="1">
          <mxGeometry relative="1" as="geometry" />
        </mxCell>
        <mxCell id="OR3LcchpH6B-QSaoghlQ-40" value="Quét vân tay thất bại" style="rounded=1;whiteSpace=wrap;html=1;arcSize=40;fontColor=#000000;fillColor=#ffffc0;strokeColor=#ff0000;" parent="1" vertex="1">
          <mxGeometry x="460" y="380" width="120" height="40" as="geometry" />
        </mxCell>
        <mxCell id="YnngZR6m_7HpqkviCiB8-45" style="edgeStyle=orthogonalEdgeStyle;rounded=0;orthogonalLoop=1;jettySize=auto;html=1;entryX=0;entryY=0.5;entryDx=0;entryDy=0;" edge="1" parent="1" source="OR3LcchpH6B-QSaoghlQ-41" target="YnngZR6m_7HpqkviCiB8-43">
          <mxGeometry relative="1" as="geometry">
            <mxPoint x="660" y="500" as="targetPoint" />
          </mxGeometry>
        </mxCell>
        <mxCell id="OR3LcchpH6B-QSaoghlQ-41" value="Lưu thời gian quét vân tay vào CSDL" style="rounded=1;whiteSpace=wrap;html=1;arcSize=40;fontColor=#000000;fillColor=#ffffc0;strokeColor=#ff0000;" parent="1" vertex="1">
          <mxGeometry x="300" y="480" width="120" height="40" as="geometry" />
        </mxCell>
        <mxCell id="YnngZR6m_7HpqkviCiB8-4" style="edgeStyle=orthogonalEdgeStyle;rounded=0;orthogonalLoop=1;jettySize=auto;html=1;entryX=0.5;entryY=0;entryDx=0;entryDy=0;" edge="1" parent="1" source="YnngZR6m_7HpqkviCiB8-2" target="OR3LcchpH6B-QSaoghlQ-11">
          <mxGeometry relative="1" as="geometry">
            <Array as="points">
              <mxPoint x="360" y="100" />
              <mxPoint x="160" y="100" />
            </Array>
          </mxGeometry>
        </mxCell>
        <mxCell id="YnngZR6m_7HpqkviCiB8-2" value="Mở duyệt công trong khung giờ cho phép" style="rounded=1;whiteSpace=wrap;html=1;arcSize=40;fontColor=#000000;fillColor=#ffffc0;strokeColor=#ff0000;" vertex="1" parent="1">
          <mxGeometry x="300" y="40" width="120" height="40" as="geometry" />
        </mxCell>
        <mxCell id="YnngZR6m_7HpqkviCiB8-34" value="" style="edgeStyle=orthogonalEdgeStyle;rounded=0;orthogonalLoop=1;jettySize=auto;html=1;" edge="1" parent="1" source="YnngZR6m_7HpqkviCiB8-22" target="OR3LcchpH6B-QSaoghlQ-33">
          <mxGeometry relative="1" as="geometry" />
        </mxCell>
        <mxCell id="YnngZR6m_7HpqkviCiB8-22" value="Mở duyệt công trong khung giờ cho phép" style="rounded=1;whiteSpace=wrap;html=1;arcSize=40;fontColor=#000000;fillColor=#ffffc0;strokeColor=#ff0000;" vertex="1" parent="1">
          <mxGeometry x="300" y="280" width="120" height="40" as="geometry" />
        </mxCell>
        <mxCell id="YnngZR6m_7HpqkviCiB8-37" style="edgeStyle=orthogonalEdgeStyle;rounded=0;orthogonalLoop=1;jettySize=auto;html=1;entryX=0.667;entryY=1;entryDx=0;entryDy=0;entryPerimeter=0;" edge="1" parent="1" source="OR3LcchpH6B-QSaoghlQ-38" target="OR3LcchpH6B-QSaoghlQ-33">
          <mxGeometry relative="1" as="geometry">
            <Array as="points">
              <mxPoint x="680" y="340" />
              <mxPoint x="180" y="340" />
            </Array>
          </mxGeometry>
        </mxCell>
        <mxCell id="YnngZR6m_7HpqkviCiB8-43" value="" style="ellipse;html=1;shape=endState;fillColor=#000000;strokeColor=#ff0000;" vertex="1" parent="1">
          <mxGeometry x="665" y="485" width="30" height="30" as="geometry" />
        </mxCell>
        <mxCell id="YnngZR6m_7HpqkviCiB8-47" value="" style="ellipse;html=1;shape=endState;fillColor=#000000;strokeColor=#ff0000;" vertex="1" parent="1">
          <mxGeometry x="630" y="65" width="30" height="30" as="geometry" />
        </mxCell>
      </root>
    </mxGraphModel>
  </diagram>
</mxfile>
